<svg width="55" height="55" viewBox="0 0 55 55" fill="none" xmlns="http://www.w3.org/2000/svg">
<path d="M23.9071 18.1885C23.8778 18.2178 22.8218 18.6138 21.5751 19.0538C15.5911 21.1805 11.8071 23.1312 9.81248 25.0818C8.75648 26.1378 8.37515 26.9005 8.37515 28.0445C8.38981 29.2032 8.75648 29.9658 9.79781 31.0218C12.2471 33.4565 17.4245 35.2458 24.4791 36.1112C25.6378 36.2578 26.4885 36.4192 26.3858 36.4632C25.9458 36.6978 22.0298 36.9325 18.9351 36.9325C11.3085 36.9178 5.79381 35.5685 2.97781 33.0018C0.807144 31.0512 0.763146 28.7925 2.87515 26.5338C5.36848 23.8352 10.4725 21.6058 19.9618 19.0978C23.3205 18.2032 24.0538 18.0418 23.9071 18.1885ZM25.5205 19.0685C25.4911 19.0978 24.8751 19.3765 24.1418 19.6698C20.1378 21.3125 16.3831 23.4538 15.1365 24.8032C14.0071 26.0352 13.7138 27.0765 14.2271 28.1765C15.2245 30.3765 19.3165 32.1952 24.6551 32.8112C26.8405 33.0605 31.4312 32.9138 33.6752 32.5178C37.2832 31.8872 40.2605 30.7139 41.8005 29.3352C43.1791 28.0885 43.4431 27.0472 42.6071 26.0498C42.1525 25.5218 42.2258 25.4925 42.9738 25.9618C44.7045 27.0618 44.8511 28.6312 43.3991 30.2445C40.5831 33.3245 33.0445 35.2018 26.0485 34.5712C16.9991 33.7498 10.8685 30.7872 11.1911 27.3698C11.3671 25.5658 13.7285 23.5272 17.6885 21.7525C18.6418 21.3418 25.1538 19.0392 25.4471 19.0245C25.5205 19.0099 25.5498 19.0392 25.5205 19.0685ZM45.8045 25.6685C47.9311 26.3138 49.0018 27.2085 49.0018 28.2938C49.0018 28.8365 48.9138 28.9832 48.1658 29.7165C47.3445 30.4938 45.8485 31.3445 44.9538 31.5645C44.5285 31.6525 44.5285 31.6525 45.0565 31.2859C46.0392 30.5819 46.8018 29.3352 46.8018 28.3965C46.8018 27.3698 46.2445 26.5485 44.9831 25.6978C44.2791 25.2285 44.3818 25.2285 45.8045 25.6685ZM49.8672 30.0245C49.6912 30.3765 49.4125 30.8459 49.2511 31.0659C48.8258 31.6525 47.2712 32.8698 45.9365 33.6618L44.7925 34.3659L47.4325 34.7765L50.0872 35.1872L49.7352 35.4659C49.5005 35.6565 49.2658 35.7152 49.0165 35.6565C48.3272 35.4805 44.3818 34.8498 43.9711 34.8498C43.7511 34.8498 43.2818 34.9965 42.9445 35.1725L42.3285 35.5098L42.8418 35.5538C43.4578 35.6125 46.5818 36.1259 47.5938 36.3459L48.3125 36.4925L47.8872 36.7565C47.5352 36.9912 47.3592 37.0058 46.7872 36.8885C46.4205 36.8152 45.0418 36.5512 43.7071 36.3312C41.4631 35.9352 41.2578 35.9205 40.6418 36.1259C39.1018 36.6392 39.0431 36.6098 42.1818 37.1378C46.2885 37.8418 46.5378 37.9298 45.9952 38.3698C45.8045 38.5312 45.3938 38.4872 43.6778 38.1498C42.5338 37.9298 40.7445 37.6072 39.6885 37.4165L37.7965 37.0792L36.5645 37.4605L35.3325 37.8418L37.8698 38.2525C39.2778 38.4725 41.5512 38.8978 42.9152 39.2059C45.3645 39.7632 45.4085 39.7778 45.4525 40.1738C45.4818 40.3938 45.4378 40.5698 45.3791 40.5698C45.3058 40.5698 44.2645 40.3498 43.0471 40.0712C38.0751 38.9272 33.8805 38.2818 32.3845 38.4138C31.9151 38.4578 31.5485 38.4725 31.5778 38.4432C31.6071 38.4138 32.6778 38.1205 33.9685 37.7978C43.7071 35.3485 49.8525 31.9018 50.0431 28.7632C50.0725 28.3672 50.0871 28.3819 50.1311 28.8659C50.1751 29.2179 50.0872 29.6138 49.8672 30.0245ZM51.3191 28.4992C51.1725 28.5285 50.9085 28.5285 50.7325 28.4992C50.5418 28.4698 50.6591 28.4405 50.9818 28.4405C51.3045 28.4258 51.4511 28.4552 51.3191 28.4992ZM51.9058 28.9392C51.6858 28.9685 51.2898 28.9685 51.0258 28.9392C50.7618 28.9098 50.9378 28.8805 51.4218 28.8805C51.9058 28.8805 52.1258 28.9098 51.9058 28.9392ZM52.4925 29.3792C52.1845 29.4085 51.6565 29.4085 51.3191 29.3792C50.9671 29.3498 51.2165 29.3205 51.8618 29.3205C52.5071 29.3205 52.7858 29.3498 52.4925 29.3792ZM52.6391 29.8192C52.2431 29.8485 51.6272 29.8485 51.2458 29.8192C50.8498 29.7898 51.1725 29.7752 51.9352 29.7752C52.6978 29.7752 53.0205 29.7898 52.6391 29.8192ZM53.6218 30.4792C53.7245 30.5818 53.3871 30.6112 52.6098 30.5378C51.9791 30.4938 51.2311 30.4498 50.9525 30.4498C50.6885 30.4498 50.4685 30.3765 50.4685 30.2885C50.4685 30.0832 53.4165 30.2738 53.6218 30.4792ZM53.2991 31.1245C53.7098 31.2418 53.5778 31.5058 53.1525 31.4178C52.9178 31.3885 52.0965 31.3005 51.3045 31.2565C50.4391 31.1978 49.9111 31.0952 49.9698 31.0072C50.0578 30.8752 52.7125 30.9632 53.2991 31.1245ZM52.1552 31.8872C52.7272 31.9458 53.1671 32.0485 53.1378 32.1365C53.1085 32.2098 52.9471 32.2685 52.7711 32.2538C52.5951 32.2538 51.7445 32.1952 50.8791 32.1218C49.9991 32.0632 49.2952 31.9752 49.2952 31.9165C49.2952 31.6818 49.5298 31.6378 50.3072 31.7112C50.7618 31.7552 51.5978 31.8432 52.1552 31.8872ZM50.7178 32.7232C51.6565 32.8552 52.4485 32.9725 52.4778 32.9872C52.4925 33.0165 52.4631 33.1045 52.3898 33.2072C52.3165 33.3392 51.8912 33.3245 50.5272 33.1485C48.3125 32.8698 48.0925 32.8258 48.1952 32.6498C48.3125 32.4592 48.6938 32.4592 50.7178 32.7232ZM49.6618 33.7498C50.4685 33.8672 51.2311 33.9698 51.3485 33.9698C51.5098 33.9698 51.4658 34.0578 51.2311 34.2338C50.9085 34.4832 50.8058 34.4832 48.8111 34.1605C47.6671 33.9845 46.6845 33.8378 46.6258 33.8232C46.5525 33.8232 46.5085 33.7498 46.5085 33.6765C46.5085 33.4712 47.9458 33.5005 49.6618 33.7498ZM32.0618 39.3232C35.8018 39.8072 40.0698 40.6285 43.5018 41.5085C45.7605 42.0952 46.1711 42.2565 47.9018 43.2098C50.2631 44.5152 50.4538 44.6765 48.7672 43.9578C46.9925 43.1805 42.5925 41.9925 38.8085 41.2298C36.6965 40.8045 32.7365 40.1738 29.0551 39.6605C27.0018 39.3818 26.7378 39.3085 27.2951 39.2352C28.5418 39.0738 30.3165 39.1032 32.0618 39.3232Z" fill="#F6B40E"/>
<path d="M32.5793 3.69946L32.6232 4.55013H33.1073C33.6939 4.55013 35.5713 5.15146 36.5393 5.63546C37.2433 5.98746 38.7686 7.05813 38.7686 7.19013C38.7686 7.23413 38.1086 7.92346 37.3166 8.71546L35.8646 10.1675L35.2779 9.69813C34.2073 8.86213 33.1073 8.45146 31.7726 8.3928C30.6726 8.33413 30.4966 8.36346 29.8806 8.73013C28.6486 9.44879 28.3259 10.8715 29.1766 11.8835C29.6899 12.4848 30.4379 12.9101 32.6086 13.7901C35.5273 14.9928 36.3779 15.4915 37.6099 16.7235C38.4899 17.5888 38.7979 18.0141 39.0473 18.7035C39.9859 21.1968 39.3552 24.0128 37.4339 25.9341C36.2606 27.1368 34.2219 28.1635 33.0193 28.1635C32.6086 28.1635 32.6086 28.1781 32.6086 29.1168V30.0701H31.4352H30.2619V29.1901V28.3248L29.7193 28.2368C27.0353 27.8115 24.9673 26.9021 23.3686 25.4208C22.8112 24.8928 22.3419 24.3795 22.3419 24.2768C22.3419 24.1741 23.0166 23.4848 23.8379 22.7661L25.3193 21.4461L26.2872 22.1941C26.8152 22.6048 27.7539 23.1621 28.3552 23.4408C30.2032 24.3208 32.4766 24.2621 33.5913 23.3381C34.6179 22.4728 34.8379 20.9475 34.0752 19.7595C33.5032 18.8501 32.5499 18.2635 30.1152 17.3248C26.4779 15.9021 25.0699 14.9195 24.2779 13.2475C23.9259 12.4995 23.8819 12.2208 23.8819 10.9301C23.8819 9.55146 23.9112 9.39013 24.3659 8.46613C24.6739 7.85013 25.1726 7.1608 25.6859 6.66213C26.6539 5.72346 28.4726 4.75546 29.5432 4.60879L30.2619 4.50613V3.74346C30.2619 3.3328 30.3059 2.93679 30.3646 2.87813C30.4232 2.81946 30.9366 2.80479 31.5086 2.81946L32.5352 2.86346L32.5793 3.69946Z" fill="#74ACDF"/>
<path d="M46.6206 46.1853L44.8386 49.632V51.3333H43.5846V49.632L41.8026 46.1853H43.2253L44.2226 48.3413L45.2126 46.1853H46.6206Z" fill="#74ACDF"/>
<path d="M40.0037 50.424H38.0824L37.7744 51.3333H36.4617L38.3244 46.1853H39.7764L41.6391 51.3333H40.3117L40.0037 50.424ZM39.6811 49.456L39.0431 47.5713L38.4124 49.456H39.6811Z" fill="#74ACDF"/>
<path d="M36.1462 47.8427C36.1462 48.1409 36.0778 48.4147 35.9409 48.664C35.804 48.9084 35.5938 49.1064 35.3102 49.258C35.0267 49.4096 34.6747 49.4853 34.2542 49.4853H33.4769V51.3333H32.2229V46.1853H34.2542C34.6649 46.1853 35.012 46.2562 35.2956 46.398C35.5791 46.5398 35.7918 46.7353 35.9336 46.9847C36.0753 47.234 36.1462 47.52 36.1462 47.8427ZM34.1589 48.488C34.3985 48.488 34.5769 48.4318 34.6942 48.3193C34.8116 48.2069 34.8702 48.048 34.8702 47.8427C34.8702 47.6373 34.8116 47.4784 34.6942 47.366C34.5769 47.2536 34.3985 47.1973 34.1589 47.1973H33.4769V48.488H34.1589Z" fill="#74ACDF"/>
<path d="M29.9821 50.3653H31.6248V51.3333H28.7281V46.1853H29.9821V50.3653Z" fill="#74ACDF"/>
<path d="M26.5259 50.424H24.6046L24.2966 51.3333H22.9839L24.8466 46.1853H26.2986L28.1612 51.3333H26.8339L26.5259 50.424ZM26.2032 49.456L25.5652 47.5713L24.9346 49.456H26.2032Z" fill="#74ACDF"/>
<path d="M17.5226 48.752C17.5226 48.2436 17.6326 47.7913 17.8526 47.3953C18.0726 46.9945 18.3782 46.684 18.7693 46.464C19.1653 46.2391 19.6126 46.1267 20.1113 46.1267C20.7224 46.1267 21.2455 46.288 21.6806 46.6107C22.1157 46.9333 22.4066 47.3733 22.5533 47.9307H21.1746C21.0719 47.7156 20.9253 47.5518 20.7346 47.4393C20.5488 47.3269 20.3362 47.2707 20.0966 47.2707C19.7104 47.2707 19.3975 47.4051 19.1579 47.674C18.9184 47.9429 18.7986 48.3022 18.7986 48.752C18.7986 49.2018 18.9184 49.5611 19.1579 49.83C19.3975 50.0989 19.7104 50.2333 20.0966 50.2333C20.3362 50.2333 20.5488 50.1771 20.7346 50.0647C20.9253 49.9522 21.0719 49.7885 21.1746 49.5733H22.5533C22.4066 50.1307 22.1157 50.5707 21.6806 50.8933C21.2455 51.2111 20.7224 51.37 20.1113 51.37C19.6126 51.37 19.1653 51.26 18.7693 51.04C18.3782 50.8151 18.0726 50.5047 17.8526 50.1087C17.6326 49.7127 17.5226 49.2605 17.5226 48.752Z" fill="#74ACDF"/>
<path d="M14.405 51.3847C13.921 51.3847 13.4761 51.2722 13.0703 51.0473C12.6694 50.8224 12.3492 50.5096 12.1096 50.1087C11.875 49.7029 11.7576 49.2482 11.7576 48.7447C11.7576 48.2411 11.875 47.7889 12.1096 47.388C12.3492 46.9871 12.6694 46.6742 13.0703 46.4493C13.4761 46.2244 13.921 46.112 14.405 46.112C14.889 46.112 15.3314 46.2244 15.7323 46.4493C16.1381 46.6742 16.4559 46.9871 16.6856 47.388C16.9203 47.7889 17.0376 48.2411 17.0376 48.7447C17.0376 49.2482 16.9203 49.7029 16.6856 50.1087C16.451 50.5096 16.1332 50.8224 15.7323 51.0473C15.3314 51.2722 14.889 51.3847 14.405 51.3847ZM14.405 50.2407C14.8156 50.2407 15.1432 50.1038 15.3876 49.83C15.637 49.5562 15.7616 49.1944 15.7616 48.7447C15.7616 48.29 15.637 47.9282 15.3876 47.6593C15.1432 47.3856 14.8156 47.2487 14.405 47.2487C13.9894 47.2487 13.657 47.3831 13.4076 47.652C13.1632 47.9209 13.041 48.2851 13.041 48.7447C13.041 49.1993 13.1632 49.5636 13.4076 49.8373C13.657 50.1062 13.9894 50.2407 14.405 50.2407Z" fill="#74ACDF"/>
<path d="M9.72949 50.3653H11.3722V51.3333H8.47549V46.1853H9.72949V50.3653Z" fill="#74ACDF"/>
<path d="M8.47916 52.0208H46.75V52.4028L8.47916 53.1667V52.0208Z" fill="#F6B40E"/>
</svg>
